<svg width="1076" height="1039" viewBox="0 0 1076 1039" fill="none" xmlns="http://www.w3.org/2000/svg">
<path d="M244.602 53.3636L384.055 294.61H390.021L530.966 53.3636H737.536L507.102 435.182L744.993 817H533.203L390.021 573.143H384.055L240.874 817H30.5753L267.347 435.182L36.5412 53.3636H244.602ZM1017.56 53.3636V817H832.99V53.3636H1017.56Z" fill="url(#paint0_linear_2671_17)"/>
<path d="M160.994 900.091H121.506C121.79 896.729 121.6 893.699 120.938 891C120.275 888.301 119.138 885.981 117.528 884.04C115.919 882.051 113.812 880.536 111.207 879.494C108.603 878.453 105.502 877.932 101.903 877.932C94.9905 877.932 88.8116 879.66 83.3665 883.116C77.9214 886.526 73.3996 891.426 69.8011 897.818C66.2027 904.163 63.6458 911.739 62.1307 920.545C60.8049 929.068 60.7576 936.147 61.9886 941.781C63.267 947.416 65.7528 951.63 69.446 954.423C73.1866 957.217 78.0398 958.614 84.0057 958.614C87.983 958.614 91.6288 958.14 94.9432 957.193C98.3049 956.246 101.288 954.897 103.892 953.145C106.544 951.346 108.793 949.215 110.639 946.753C112.533 944.243 113.977 941.473 114.972 938.443H154.744C153.229 944.598 150.53 950.896 146.648 957.335C142.765 963.727 137.746 969.622 131.591 975.02C125.436 980.37 118.191 984.703 109.858 988.017C101.525 991.331 92.1496 992.989 81.733 992.989C68.0966 992.989 56.3305 990.006 46.4347 984.04C36.5862 978.074 29.4366 969.362 24.9858 957.903C20.5824 946.445 19.7064 932.477 22.358 916C25.0095 900.091 30.2415 886.762 38.054 876.014C45.8665 865.266 55.3598 857.17 66.5341 851.724C77.7083 846.279 89.5928 843.557 102.188 843.557C111.705 843.557 120.227 844.812 127.756 847.321C135.331 849.83 141.7 853.5 146.861 858.33C152.069 863.112 155.904 869.007 158.366 876.014C160.829 883.022 161.705 891.047 160.994 900.091ZM316.552 920.83C313.9 936.644 308.645 949.902 300.785 960.602C292.925 971.303 283.384 979.376 272.163 984.821C260.941 990.266 248.938 992.989 236.154 992.989C222.518 992.989 210.681 990.029 200.643 984.111C190.605 978.192 183.29 969.527 178.697 958.116C174.104 946.705 173.181 932.761 175.927 916.284C178.484 900.47 183.692 887.165 191.552 876.369C199.412 865.574 209 857.406 220.316 851.866C231.632 846.327 243.73 843.557 256.609 843.557C270.15 843.557 281.916 846.54 291.907 852.506C301.945 858.472 309.237 867.207 313.782 878.713C318.375 890.219 319.298 904.258 316.552 920.83ZM276.779 916.284C278.105 907.951 278.2 900.943 277.063 895.261C275.927 889.532 273.536 885.223 269.89 882.335C266.244 879.4 261.344 877.932 255.188 877.932C248.181 877.932 241.978 879.636 236.58 883.045C231.183 886.455 226.708 891.355 223.157 897.747C219.606 904.139 217.12 911.833 215.7 920.83C214.184 929.258 214.042 936.265 215.273 941.852C216.552 947.439 219.061 951.63 222.802 954.423C226.59 957.217 231.514 958.614 237.575 958.614C244.487 958.614 250.595 956.956 255.898 953.642C261.249 950.328 265.676 945.522 269.18 939.224C272.731 932.927 275.264 925.28 276.779 916.284ZM473.175 845.545L449.027 991H416.072L376.3 914.58H375.447L362.663 991H323.175L347.322 845.545H380.845L420.05 921.682H421.186L433.686 845.545H473.175ZM617.706 845.545L593.558 991H560.604L520.831 914.58H519.979L507.195 991H467.706L491.854 845.545H525.376L564.581 921.682H565.717L578.217 845.545H617.706ZM612.237 991L636.385 845.545H741.214L735.817 877.364H670.476L666.499 902.364H726.442L721.044 934.182H661.101L657.124 959.182H722.18L716.783 991H612.237ZM887.362 900.091H847.873C848.157 896.729 847.968 893.699 847.305 891C846.642 888.301 845.505 885.981 843.896 884.04C842.286 882.051 840.179 880.536 837.575 879.494C834.97 878.453 831.869 877.932 828.271 877.932C821.358 877.932 815.179 879.66 809.734 883.116C804.289 886.526 799.767 891.426 796.168 897.818C792.57 904.163 790.013 911.739 788.498 920.545C787.172 929.068 787.125 936.147 788.356 941.781C789.634 947.416 792.12 951.63 795.813 954.423C799.554 957.217 804.407 958.614 810.373 958.614C814.35 958.614 817.996 958.14 821.31 957.193C824.672 956.246 827.655 954.897 830.259 953.145C832.911 951.346 835.16 949.215 837.006 946.753C838.9 944.243 840.344 941.473 841.339 938.443H881.112C879.596 944.598 876.897 950.896 873.015 957.335C869.132 963.727 864.113 969.622 857.958 975.02C851.803 980.37 844.558 984.703 836.225 988.017C827.892 991.331 818.517 992.989 808.1 992.989C794.464 992.989 782.698 990.006 772.802 984.04C762.953 978.074 755.804 969.362 751.353 957.903C746.95 946.445 746.074 932.477 748.725 916C751.377 900.091 756.609 886.762 764.421 876.014C772.234 865.266 781.727 857.17 792.901 851.724C804.076 846.279 815.96 843.557 828.555 843.557C838.072 843.557 846.594 844.812 854.123 847.321C861.699 849.83 868.067 853.5 873.228 858.33C878.436 863.112 882.272 869.007 884.734 876.014C887.196 883.022 888.072 891.047 887.362 900.091ZM905.135 877.364L910.533 845.545H1036.95L1031.56 877.364H987.805L969.055 991H930.135L948.885 877.364H905.135Z" fill="url(#paint1_linear_2671_17)"/>
<defs>
<linearGradient id="paint0_linear_2671_17" x1="448" y1="303.5" x2="1007.5" y2="771" gradientUnits="userSpaceOnUse">
<stop stop-color="#2D88E5"/>
<stop offset="1" stop-color="#1766B7"/>
</linearGradient>
<linearGradient id="paint1_linear_2671_17" x1="10" y1="918" x2="1028" y2="918" gradientUnits="userSpaceOnUse">
<stop stop-color="#3BC27D"/>
<stop offset="1" stop-color="#1A9E5A"/>
</linearGradient>
</defs>
</svg>
